<svg xmlns="http://www.w3.org/2000/svg" version="1.1" xmlns:xlink="http://www.w3.org/1999/xlink" xmlns:svgjs="http://svgjs.dev/svgjs" width="2000" height="368" viewBox="0 0 2000 368"><g transform="matrix(1,0,0,1,-1.2121212121212466,-1.8868107227283701)"><svg viewBox="0 0 396 73" data-background-color="#ffffff" preserveAspectRatio="xMidYMid meet" height="368" width="2000" xmlns="http://www.w3.org/2000/svg" xmlns:xlink="http://www.w3.org/1999/xlink"><g id="tight-bounds" transform="matrix(1,0,0,1,0.2400000000000091,0.37428582271513733)"><svg viewBox="0 0 395.52 72.2514283545697" height="72.2514283545697" width="395.52"><g><svg viewBox="0 0 507.5514140141844 92.71671375886525" height="72.2514283545697" width="395.52"><g transform="matrix(1,0,0,1,112.0314140141844,5.450555460992909)"><svg viewBox="0 0 395.52 81.81560283687944" height="81.81560283687944" width="395.52"><g id="textblocktransform"><svg viewBox="0 0 395.52 81.81560283687944" height="81.81560283687944" width="395.52" id="textblock"><g><svg viewBox="0 0 395.52 81.81560283687944" height="81.81560283687944" width="395.52"><g transform="matrix(1,0,0,1,0,0)"><svg width="395.52" viewBox="1.9 -43.35 211.48 43.75" height="81.81560283687944" data-palette-color="#556970"><path d="M1.9 0L1.9-42.95 13.55-42.95Q18.25-42.95 20.38-40.65 22.5-38.35 22.5-33.15L22.5-33.15 22.5-31.25Q22.5-25.1 18.1-23.9L18.1-23.9Q20.8-23.2 21.9-20.65 23-18.1 23-13.9L23-13.9Q23-7.05 20.95-3.53 18.9 0 13.55 0L13.55 0 1.9 0ZM10.3-26.8L12.05-26.8Q13.15-26.8 13.55-27.63 13.95-28.45 13.95-29.95L13.95-29.95 13.95-34.25Q13.95-36.35 12.1-36.35L12.1-36.35 10.3-36.35 10.3-26.8ZM11.15-7.55Q14.5-7.55 14.5-10.75L14.5-10.75 14.5-16.1Q14.5-18.05 13.93-19.05 13.35-20.05 11.9-20.05L11.9-20.05 10.3-20.05 10.3-7.6 11.15-7.55ZM33.05 0L24.7 0 28.85-42.95 43.4-42.95 47.5 0 39.35 0 38.75-6.95 33.55-6.95 33.05 0ZM35.8-35.65L34.2-13.8 38.1-13.8 36.2-35.65 35.8-35.65ZM60.1 0.4Q55.4 0.4 52.57-2.55 49.75-5.5 49.75-10.65L49.75-10.65 49.75-30.45Q49.75-36.85 52.3-40.1 54.85-43.35 60.3-43.35L60.3-43.35Q65.05-43.35 67.95-40.75 70.85-38.15 70.85-33.25L70.85-33.25 70.85-25.85 62.3-25.85 62.3-32.2Q62.3-34.05 61.85-34.75 61.4-35.45 60.3-35.45L60.3-35.45Q59.15-35.45 58.72-34.65 58.3-33.85 58.3-32.3L58.3-32.3 58.3-10.75Q58.3-9.05 58.8-8.28 59.3-7.5 60.3-7.5L60.3-7.5Q62.3-7.5 62.3-10.75L62.3-10.75 62.3-18.5 70.95-18.5 70.95-10.4Q70.95 0.4 60.1 0.4L60.1 0.4ZM82.34 0L73.79 0 73.79-42.95 82.29-42.95 82.29-25.75 86.29-42.95 94.94-42.95 90.14-23.3 95.94 0 87.04 0 82.34-20.8 82.34 0ZM117.64 0L109.09 0 109.09-42.95 117.64-42.95 117.64-27.6 121.69-27.6 121.69-42.95 130.24-42.95 130.24 0 121.69 0 121.69-19.5 117.64-19.5 117.64 0ZM144.29 0.4Q139.09 0.4 136.39-2.78 133.69-5.95 133.69-11.7L133.69-11.7 133.69-32.15Q133.69-37.7 136.39-40.53 139.09-43.35 144.29-43.35L144.29-43.35Q149.49-43.35 152.19-40.53 154.89-37.7 154.89-32.15L154.89-32.15 154.89-11.7Q154.89-5.9 152.19-2.75 149.49 0.4 144.29 0.4L144.29 0.4ZM144.29-7.5Q145.44-7.5 145.84-8.5 146.24-9.5 146.24-11.3L146.24-11.3 146.24-32.3Q146.24-33.7 145.86-34.58 145.49-35.45 144.34-35.45L144.34-35.45Q142.19-35.45 142.19-32.2L142.19-32.2 142.19-11.25Q142.19-9.4 142.64-8.45 143.09-7.5 144.29-7.5L144.29-7.5ZM166.08 0L158.33 0 158.33-42.95 171.43-42.95 175.03-16.75 178.63-42.95 191.83-42.95 191.83 0 183.98 0 183.98-30.95 179.03 0 171.33 0 166.08-30.95 166.08 0ZM213.38 0L195.63 0 195.63-42.95 212.83-42.95 212.83-34.65 204.38-34.65 204.38-26.3 212.48-26.3 212.48-18.2 204.38-18.2 204.38-8.35 213.38-8.35 213.38 0Z" opacity="1" transform="matrix(1,0,0,1,0,0)" fill="#556970" class="wordmark-text-0" data-fill-palette-color="primary" id="text-0"></path></svg></g></svg></g></svg></g></svg></g><g><svg viewBox="0 0 92.71671375886525 92.71671375886525" height="92.71671375886525" width="92.71671375886525"><g><svg xmlns="http://www.w3.org/2000/svg" xmlns:xlink="http://www.w3.org/1999/xlink" version="1.0" x="0" y="0" viewBox="20 20 60 60" enable-background="new 0 0 100 100" xml:space="preserve" height="92.71671375886525" width="92.71671375886525" class="icon-icon-0" data-fill-palette-color="accent" id="icon-0"><path d="M20 26.667A6.67 6.67 0 0 1 26.667 33.334V63.334C26.667 72.539 34.128 80 43.333 80S60 72.539 60 63.334V40A3.33 3.33 0 0 1 63.333 36.667 3.33 3.33 0 0 1 66.667 40V56.666C66.667 64.023 72.637 70 80 70V63.334A6.67 6.67 0 0 1 73.333 56.666V40C73.333 34.476 68.854 30 63.333 30S53.333 34.476 53.333 40V63.334C53.333 68.857 48.854 73.334 43.333 73.334S33.333 68.857 33.333 63.334V33.334C33.333 25.973 27.363 20 20 20z" fill="#607c68" data-fill-palette-color="accent"></path></svg></g></svg></g></svg></g><defs></defs></svg><rect width="395.52" height="72.2514283545697" fill="none" stroke="none" visibility="hidden"></rect></g></svg></g></svg>