<?xml version="1.0" encoding="UTF-8"?>
<svg xmlns="http://www.w3.org/2000/svg" xmlns:xlink="http://www.w3.org/1999/xlink" width="200px" height="37px" viewBox="0 0 201 37" version="1.1">
<defs>
<clipPath id="clip1">
  <path d="M 44.417969 2.152344 L 200.570312 2.152344 L 200.570312 34.46875 L 44.417969 34.46875 Z M 44.417969 2.152344 "/>
</clipPath>
<clipPath id="clip2">
  <path d="M 0.1875 0 L 36.792969 0 L 36.792969 36.621094 L 0.1875 36.621094 Z M 0.1875 0 "/>
</clipPath>
</defs>
<g id="surface1">
<g clip-path="url(#clip1)" clip-rule="nonzero">
<path style=" stroke:none;fill-rule:nonzero;fill:rgb(33.333333%,41.176471%,43.921569%);fill-opacity:1;" d="M 44.425781 34.171875 L 44.425781 2.449219 L 53.027344 2.449219 C 55.339844 2.449219 57.019531 3.015625 58.070312 4.148438 C 59.113281 5.28125 59.632812 7.125 59.632812 9.6875 L 59.632812 11.089844 C 59.632812 14.117188 58.550781 15.929688 56.386719 16.519531 C 57.714844 16.863281 58.648438 17.664062 59.191406 18.917969 C 59.730469 20.175781 60.003906 21.835938 60.003906 23.90625 C 60.003906 27.277344 59.5 29.832031 58.488281 31.566406 C 57.480469 33.304688 55.660156 34.171875 53.027344 34.171875 Z M 50.625 14.378906 L 51.917969 14.378906 C 52.460938 14.378906 52.828125 14.171875 53.027344 13.765625 C 53.222656 13.359375 53.320312 12.789062 53.320312 12.050781 L 53.320312 8.875 C 53.320312 7.839844 52.867188 7.324219 51.957031 7.324219 L 50.625 7.324219 Z M 51.253906 28.59375 C 52.902344 28.59375 53.726562 27.808594 53.726562 26.230469 L 53.726562 22.28125 C 53.726562 21.320312 53.585938 20.59375 53.304688 20.101562 C 53.019531 19.609375 52.519531 19.363281 51.808594 19.363281 L 50.625 19.363281 L 50.625 28.558594 Z M 67.421875 34.171875 L 61.257812 34.171875 L 64.320312 2.449219 L 75.0625 2.449219 L 78.089844 34.171875 L 72.074219 34.171875 L 71.632812 29.039062 L 67.792969 29.039062 Z M 69.453125 7.839844 L 68.273438 23.980469 L 71.152344 23.980469 L 69.75 7.839844 Z M 87.394531 34.46875 C 85.082031 34.46875 83.226562 33.742188 81.835938 32.289062 C 80.445312 30.835938 79.753906 28.84375 79.753906 26.304688 L 79.753906 11.679688 C 79.753906 8.53125 80.378906 6.152344 81.636719 4.554688 C 82.890625 2.953125 84.859375 2.152344 87.542969 2.152344 C 89.878906 2.152344 91.761719 2.792969 93.191406 4.074219 C 94.617188 5.355469 95.332031 7.199219 95.332031 9.613281 L 95.332031 15.078125 L 89.019531 15.078125 L 89.019531 10.386719 C 89.019531 9.476562 88.90625 8.851562 88.6875 8.503906 C 88.464844 8.160156 88.082031 7.988281 87.542969 7.988281 C 86.976562 7.988281 86.585938 8.183594 86.375 8.578125 C 86.167969 8.972656 86.066406 9.550781 86.066406 10.316406 L 86.066406 26.230469 C 86.066406 27.070312 86.1875 27.675781 86.433594 28.054688 C 86.679688 28.441406 87.050781 28.632812 87.542969 28.632812 C 88.527344 28.632812 89.019531 27.832031 89.019531 26.230469 L 89.019531 20.507812 L 95.40625 20.507812 L 95.40625 26.492188 C 95.40625 31.808594 92.734375 34.46875 87.394531 34.46875 Z M 103.8125 34.171875 L 97.5 34.171875 L 97.5 2.449219 L 103.777344 2.449219 L 103.777344 15.152344 L 106.730469 2.449219 L 113.117188 2.449219 L 109.574219 16.960938 L 113.855469 34.171875 L 107.285156 34.171875 L 103.8125 18.808594 Z M 129.875 34.171875 L 123.5625 34.171875 L 123.5625 2.449219 L 129.875 2.449219 L 129.875 13.785156 L 132.867188 13.785156 L 132.867188 2.449219 L 139.179688 2.449219 L 139.179688 34.171875 L 132.867188 34.171875 L 132.867188 19.769531 L 129.875 19.769531 Z M 149.550781 34.46875 C 146.992188 34.46875 145.046875 33.683594 143.71875 32.117188 C 142.390625 30.558594 141.726562 28.363281 141.726562 25.53125 L 141.726562 10.425781 C 141.726562 7.691406 142.390625 5.628906 143.71875 4.234375 C 145.046875 2.847656 146.992188 2.152344 149.550781 2.152344 C 152.113281 2.152344 154.054688 2.847656 155.386719 4.234375 C 156.714844 5.628906 157.378906 7.691406 157.378906 10.425781 L 157.378906 25.53125 C 157.378906 28.386719 156.714844 30.589844 155.386719 32.140625 C 154.054688 33.691406 152.113281 34.46875 149.550781 34.46875 Z M 149.550781 28.632812 C 150.117188 28.632812 150.5 28.386719 150.695312 27.894531 C 150.894531 27.402344 150.992188 26.710938 150.992188 25.824219 L 150.992188 10.316406 C 150.992188 9.625 150.898438 9.0625 150.710938 8.628906 C 150.53125 8.203125 150.15625 7.988281 149.589844 7.988281 C 148.53125 7.988281 148 8.789062 148 10.386719 L 148 25.863281 C 148 26.773438 148.113281 27.464844 148.335938 27.929688 C 148.554688 28.398438 148.960938 28.632812 149.550781 28.632812 Z M 165.640625 34.171875 L 159.917969 34.171875 L 159.917969 2.449219 L 169.589844 2.449219 L 172.246094 21.800781 L 174.90625 2.449219 L 184.652344 2.449219 L 184.652344 34.171875 L 178.855469 34.171875 L 178.855469 11.3125 L 175.199219 34.171875 L 169.515625 34.171875 L 165.640625 11.3125 Z M 200.5625 34.171875 L 187.457031 34.171875 L 187.457031 2.449219 L 200.15625 2.449219 L 200.15625 8.578125 L 193.917969 8.578125 L 193.917969 14.746094 L 199.898438 14.746094 L 199.898438 20.730469 L 193.917969 20.730469 L 193.917969 28.003906 L 200.5625 28.003906 Z M 200.5625 34.171875 "/>
</g>
<g clip-path="url(#clip2)" clip-rule="nonzero">
<path style=" stroke:none;fill-rule:nonzero;fill:rgb(37.647059%,48.627451%,40.784314%);fill-opacity:1;" d="M 0.1875 4.070312 C 2.433594 4.070312 4.253906 5.890625 4.253906 8.136719 L 4.253906 26.449219 C 4.253906 32.066406 8.804688 36.621094 14.421875 36.621094 C 20.039062 36.621094 24.589844 32.066406 24.589844 26.449219 L 24.589844 12.207031 C 24.589844 11.667969 24.804688 11.148438 25.183594 10.769531 C 25.566406 10.386719 26.085938 10.171875 26.625 10.171875 C 27.164062 10.171875 27.679688 10.386719 28.0625 10.769531 C 28.445312 11.148438 28.65625 11.667969 28.65625 12.207031 L 28.65625 22.378906 C 28.65625 26.867188 32.300781 30.515625 36.792969 30.515625 L 36.792969 26.449219 C 34.546875 26.449219 32.726562 24.625 32.722656 22.378906 L 32.722656 12.207031 C 32.722656 8.835938 29.992188 6.101562 26.625 6.101562 C 23.253906 6.101562 20.523438 8.835938 20.523438 12.207031 L 20.523438 26.449219 C 20.523438 29.820312 17.789062 32.550781 14.421875 32.550781 C 11.054688 32.550781 8.320312 29.820312 8.320312 26.449219 L 8.320312 8.136719 C 8.320312 3.644531 4.679688 0 0.1875 0 Z M 0.1875 4.070312 "/>
</g>
</g>
</svg>
