<?xml version="1.0" encoding="UTF-8"?>
<svg xmlns="http://www.w3.org/2000/svg" xmlns:xlink="http://www.w3.org/1999/xlink" width="50px" height="50px" viewBox="0 0 50 50" version="1.1">
<defs>
<clipPath id="clip1">
  <path d="M 4.882812 4.882812 L 44.898438 4.882812 L 44.898438 44.898438 L 4.882812 44.898438 Z M 4.882812 4.882812 "/>
</clipPath>
</defs>
<g id="surface1">
<g clip-path="url(#clip1)" clip-rule="nonzero">
<path style=" stroke:none;fill-rule:nonzero;fill:rgb(37.647059%,48.627451%,40.784314%);fill-opacity:1;" d="M 4.882812 9.328125 C 7.339844 9.332031 9.328125 11.320312 9.328125 13.777344 L 9.328125 33.785156 C 9.328125 39.921875 14.304688 44.898438 20.445312 44.898438 C 26.582031 44.898438 31.5625 39.921875 31.5625 33.785156 L 31.5625 18.222656 C 31.558594 17.632812 31.792969 17.066406 32.210938 16.648438 C 32.628906 16.230469 33.195312 16 33.785156 16 C 34.375 16 34.9375 16.230469 35.355469 16.648438 C 35.773438 17.066406 36.007812 17.632812 36.007812 18.222656 L 36.007812 29.335938 C 36.007812 34.242188 39.988281 38.230469 44.898438 38.230469 L 44.898438 33.785156 C 42.445312 33.785156 40.453125 31.792969 40.453125 29.335938 L 40.453125 18.222656 C 40.453125 14.539062 37.464844 11.550781 33.785156 11.550781 C 30.101562 11.550781 27.113281 14.539062 27.113281 18.222656 L 27.113281 33.785156 C 27.113281 37.46875 24.125 40.453125 20.445312 40.453125 C 16.761719 40.453125 13.773438 37.46875 13.773438 33.785156 L 13.773438 13.777344 C 13.773438 8.867188 9.792969 4.882812 4.882812 4.882812 Z M 4.882812 9.328125 "/>
</g>
</g>
</svg>
