<?xml version="1.0" encoding="UTF-8"?>
<svg xmlns="http://www.w3.org/2000/svg" xmlns:xlink="http://www.w3.org/1999/xlink" width="32px" height="32px" viewBox="0 0 32 32" version="1.1">
<g id="surface1">
<path style=" stroke:none;fill-rule:nonzero;fill:rgb(0%,0%,0%);fill-opacity:1;" d="M 5.765625 27.128906 L 6.015625 26.539062 C 3.976562 25.679688 2.65625 23.679688 2.667969 21.464844 C 2.667969 18.238281 5.191406 15.980469 7.636719 13.792969 C 9.441406 12.445312 10.90625 10.691406 11.914062 8.675781 C 14.136719 7.878906 16.015625 6.347656 17.246094 4.332031 L 16.089844 3.667969 C 15.15625 5.195312 13.789062 6.402344 12.15625 7.136719 C 12.128906 6.523438 11.929688 5.925781 11.578125 5.414062 C 10.910156 4.484375 9.8125 3.953125 8.667969 4 C 6.269531 4 4 5.78125 4 7.667969 C 3.996094 8.027344 4.140625 8.375 4.398438 8.625 C 5.410156 9.261719 6.617188 9.511719 7.796875 9.332031 L 8 9.332031 C 8.738281 9.335938 9.476562 9.269531 10.207031 9.136719 C 9.222656 10.507812 8.058594 11.742188 6.746094 12.800781 C 4.207031 15.070312 1.332031 17.644531 1.332031 21.464844 C 1.308594 24.273438 3.019531 26.804688 5.632812 27.828125 C 5.628906 27.585938 5.675781 27.351562 5.765625 27.128906 Z M 8 8 L 7.792969 8 C 6.316406 7.992188 5.472656 7.894531 5.332031 7.667969 C 5.332031 6.617188 6.871094 5.332031 8.667969 5.332031 C 9.375 5.292969 10.058594 5.609375 10.484375 6.175781 C 10.769531 6.601562 10.882812 7.121094 10.8125 7.628906 C 9.894531 7.878906 8.949219 8.003906 8 8 Z M 28.714844 4.691406 C 28.476562 4.4375 28.148438 4.289062 27.800781 4.28125 C 27.453125 4.273438 27.117188 4.410156 26.867188 4.652344 L 9.332031 22.191406 L 6.988281 27.652344 C 6.910156 27.839844 6.949219 28.054688 7.09375 28.199219 C 7.238281 28.34375 7.453125 28.382812 7.640625 28.300781 L 13.101562 25.960938 L 30.636719 8.425781 C 30.882812 8.179688 31.015625 7.84375 31.007812 7.496094 C 31 7.148438 30.855469 6.816406 30.597656 6.578125 Z M 9.039062 26.25 L 10.324219 23.265625 L 12.03125 24.96875 Z M 13.058594 24.117188 L 11.175781 22.230469 L 24.90625 8.5 L 26.789062 10.386719 Z M 29.269531 7.910156 L 27.734375 9.445312 L 25.847656 7.558594 L 27.40625 6 C 27.511719 5.894531 27.65625 5.835938 27.808594 5.835938 C 27.957031 5.839844 28.101562 5.902344 28.207031 6.007812 L 29.277344 7.125 C 29.488281 7.347656 29.484375 7.695312 29.269531 7.910156 Z M 25.332031 24 L 29.332031 24 L 29.332031 25.332031 L 25.332031 25.332031 L 25.332031 29.332031 L 24 29.332031 L 24 25.332031 L 20 25.332031 L 20 24 L 24 24 L 24 20 L 25.332031 20 Z M 25.332031 24 "/>
</g>
</svg>
