<?xml version="1.0" encoding="UTF-8"?>
<svg xmlns="http://www.w3.org/2000/svg" xmlns:xlink="http://www.w3.org/1999/xlink" width="24px" height="24px" viewBox="0 0 24 24" version="1.1">
<g id="surface1">
<path style=" stroke:none;fill-rule:nonzero;fill:rgb(0%,0%,0%);fill-opacity:1;" d="M 4.324219 20.347656 L 4.511719 19.902344 C 2.980469 19.261719 1.992188 17.761719 2 16.097656 C 2 13.679688 3.894531 11.984375 5.726562 10.34375 C 7.082031 9.332031 8.179688 8.019531 8.933594 6.507812 C 10.601562 5.910156 12.011719 4.761719 12.933594 3.25 L 12.066406 2.75 C 11.367188 3.894531 10.339844 4.800781 9.117188 5.351562 C 9.097656 4.894531 8.949219 4.445312 8.683594 4.058594 C 8.183594 3.363281 7.359375 2.964844 6.5 3 C 4.703125 3 3 4.335938 3 5.75 C 2.996094 6.019531 3.105469 6.28125 3.300781 6.46875 C 4.058594 6.945312 4.964844 7.132812 5.847656 7 L 6 7 C 6.554688 7.003906 7.105469 6.953125 7.65625 6.851562 C 6.917969 7.878906 6.042969 8.808594 5.058594 9.601562 C 3.15625 11.300781 1 13.234375 1 16.097656 C 0.980469 18.207031 2.265625 20.105469 4.222656 20.871094 C 4.222656 20.691406 4.257812 20.511719 4.324219 20.347656 Z M 6 6 L 5.84375 6 C 4.738281 5.996094 4.105469 5.921875 4 5.75 C 4 4.964844 5.152344 4 6.5 4 C 7.03125 3.96875 7.542969 4.207031 7.863281 4.632812 C 8.078125 4.949219 8.160156 5.339844 8.109375 5.722656 C 7.421875 5.910156 6.710938 6.003906 6 6 Z M 21.535156 3.519531 C 21.355469 3.328125 21.113281 3.214844 20.851562 3.210938 C 20.589844 3.207031 20.339844 3.308594 20.152344 3.488281 L 7 16.644531 L 5.242188 20.738281 C 5.183594 20.878906 5.210938 21.042969 5.320312 21.148438 C 5.429688 21.257812 5.589844 21.285156 5.730469 21.226562 L 9.824219 19.472656 L 22.976562 6.320312 C 23.160156 6.136719 23.261719 5.882812 23.253906 5.621094 C 23.25 5.363281 23.140625 5.113281 22.949219 4.933594 Z M 6.777344 19.6875 L 7.742188 17.449219 L 9.023438 18.726562 Z M 9.792969 18.089844 L 8.382812 16.671875 L 18.679688 6.375 L 20.089844 7.789062 Z M 21.953125 5.933594 L 20.800781 7.082031 L 19.386719 5.667969 L 20.554688 4.5 C 20.632812 4.421875 20.742188 4.378906 20.855469 4.378906 C 20.96875 4.378906 21.074219 4.425781 21.15625 4.503906 L 21.957031 5.34375 C 22.117188 5.511719 22.113281 5.769531 21.953125 5.933594 Z M 19 18 L 22 18 L 22 19 L 19 19 L 19 22 L 18 22 L 18 19 L 15 19 L 15 18 L 18 18 L 18 15 L 19 15 Z M 19 18 "/>
</g>
</svg>
